<mxfile host="65bd71144e">
    <diagram id="wJeNWoLLC2793GoXLWI5" name="グループ作成">
        <mxGraphModel dx="530" dy="524" grid="1" gridSize="10" guides="1" tooltips="1" connect="1" arrows="1" fold="1" page="1" pageScale="1" pageWidth="827" pageHeight="1169" math="0" shadow="0">
            <root>
                <mxCell id="0"/>
                <mxCell id="1" parent="0"/>
                <mxCell id="2" value="ユーザー" style="shape=umlActor;verticalLabelPosition=bottom;verticalAlign=top;html=1;outlineConnect=0;" parent="1" vertex="1">
                    <mxGeometry x="30" y="190" width="30" height="60" as="geometry"/>
                </mxCell>
                <mxCell id="6" value="グループ作成画面" style="shape=umlBoundary;whiteSpace=wrap;html=1;" parent="1" vertex="1">
                    <mxGeometry x="175" y="190" width="100" height="80" as="geometry"/>
                </mxCell>
                <mxCell id="8" value="" style="endArrow=classic;html=1;" parent="1" edge="1">
                    <mxGeometry width="50" height="50" relative="1" as="geometry">
                        <mxPoint x="80" y="230" as="sourcePoint"/>
                        <mxPoint x="150" y="230" as="targetPoint"/>
                    </mxGeometry>
                </mxCell>
                <mxCell id="11" value="" style="endArrow=classic;html=1;" parent="1" edge="1">
                    <mxGeometry width="50" height="50" relative="1" as="geometry">
                        <mxPoint x="290" y="229.47" as="sourcePoint"/>
                        <mxPoint x="360" y="229.47" as="targetPoint"/>
                    </mxGeometry>
                </mxCell>
                <mxCell id="13" value="グループ画面" style="shape=umlBoundary;whiteSpace=wrap;html=1;" parent="1" vertex="1">
                    <mxGeometry x="110" y="340" width="100" height="80" as="geometry"/>
                </mxCell>
                <mxCell id="14" value="エラー画面" style="shape=umlBoundary;whiteSpace=wrap;html=1;" parent="1" vertex="1">
                    <mxGeometry x="130" y="430" width="100" height="80" as="geometry"/>
                </mxCell>
                <mxCell id="15" value="" style="endArrow=classic;html=1;" parent="1" target="28" edge="1">
                    <mxGeometry width="50" height="50" relative="1" as="geometry">
                        <mxPoint x="380" y="275" as="sourcePoint"/>
                        <mxPoint x="412" y="315" as="targetPoint"/>
                    </mxGeometry>
                </mxCell>
                <mxCell id="16" value="" style="endArrow=classic;html=1;" parent="1" target="29" edge="1">
                    <mxGeometry width="50" height="50" relative="1" as="geometry">
                        <mxPoint x="400" y="280" as="sourcePoint"/>
                        <mxPoint x="370" y="360" as="targetPoint"/>
                    </mxGeometry>
                </mxCell>
                <mxCell id="33" value="型式間違い入力" style="edgeLabel;html=1;align=center;verticalAlign=middle;resizable=0;points=[];" parent="16" vertex="1" connectable="0">
                    <mxGeometry x="-0.4064" y="1" relative="1" as="geometry">
                        <mxPoint as="offset"/>
                    </mxGeometry>
                </mxCell>
                <mxCell id="17" value="" style="endArrow=classic;html=1;" parent="1" edge="1">
                    <mxGeometry width="50" height="50" relative="1" as="geometry">
                        <mxPoint x="265" y="350" as="sourcePoint"/>
                        <mxPoint x="215" y="380" as="targetPoint"/>
                    </mxGeometry>
                </mxCell>
                <mxCell id="19" value="グループ情報登録" style="ellipse;shape=umlControl;whiteSpace=wrap;html=1;" parent="1" vertex="1">
                    <mxGeometry x="379" y="190" width="70" height="80" as="geometry"/>
                </mxCell>
                <mxCell id="22" value="グループ情報入力▶" style="text;html=1;align=center;verticalAlign=middle;resizable=0;points=[];autosize=1;strokeColor=none;fillColor=none;" parent="1" vertex="1">
                    <mxGeometry x="50" y="205" width="130" height="30" as="geometry"/>
                </mxCell>
                <mxCell id="26" value="" style="endArrow=classic;html=1;" parent="1" target="14" edge="1">
                    <mxGeometry width="50" height="50" relative="1" as="geometry">
                        <mxPoint x="339" y="430" as="sourcePoint"/>
                        <mxPoint x="379" y="438.95000000000005" as="targetPoint"/>
                    </mxGeometry>
                </mxCell>
                <mxCell id="27" value="グループ" style="ellipse;shape=umlEntity;whiteSpace=wrap;html=1;" parent="1" vertex="1">
                    <mxGeometry x="530" y="190" width="80" height="80" as="geometry"/>
                </mxCell>
                <mxCell id="28" value="表示" style="ellipse;shape=umlControl;whiteSpace=wrap;html=1;" parent="1" vertex="1">
                    <mxGeometry x="275" y="290" width="70" height="80" as="geometry"/>
                </mxCell>
                <mxCell id="29" value="エラー画面表示" style="ellipse;shape=umlControl;whiteSpace=wrap;html=1;" parent="1" vertex="1">
                    <mxGeometry x="309" y="400" width="70" height="80" as="geometry"/>
                </mxCell>
                <mxCell id="31" value="正常終了時▶" style="text;html=1;align=center;verticalAlign=middle;resizable=0;points=[];autosize=1;strokeColor=none;fillColor=none;" parent="1" vertex="1">
                    <mxGeometry x="289" y="260" width="100" height="30" as="geometry"/>
                </mxCell>
                <mxCell id="4wMDzKGDCmmX4mm_2s63-34" value="" style="endArrow=classic;startArrow=classic;html=1;" parent="1" edge="1">
                    <mxGeometry width="50" height="50" relative="1" as="geometry">
                        <mxPoint x="460" y="230" as="sourcePoint"/>
                        <mxPoint x="520" y="230" as="targetPoint"/>
                    </mxGeometry>
                </mxCell>
            </root>
        </mxGraphModel>
    </diagram>
    <diagram id="9w4y1-wrtkpJkyDEFTM0" name="グループ参加">
        <mxGraphModel dx="492" dy="559" grid="1" gridSize="10" guides="1" tooltips="1" connect="1" arrows="1" fold="1" page="1" pageScale="1" pageWidth="827" pageHeight="1169" math="0" shadow="0">
            <root>
                <mxCell id="0"/>
                <mxCell id="1" parent="0"/>
                <mxCell id="sMGENTJ3LTWp_Eu01ZLw-1" value="ユーザー" style="shape=umlActor;verticalLabelPosition=bottom;verticalAlign=top;html=1;outlineConnect=0;" parent="1" vertex="1">
                    <mxGeometry x="30" y="190" width="30" height="60" as="geometry"/>
                </mxCell>
                <mxCell id="sMGENTJ3LTWp_Eu01ZLw-2" value="グループ参加画面" style="shape=umlBoundary;whiteSpace=wrap;html=1;" parent="1" vertex="1">
                    <mxGeometry x="189" y="190" width="100" height="80" as="geometry"/>
                </mxCell>
                <mxCell id="sMGENTJ3LTWp_Eu01ZLw-3" value="" style="endArrow=classic;html=1;" parent="1" edge="1">
                    <mxGeometry width="50" height="50" relative="1" as="geometry">
                        <mxPoint x="80" y="230" as="sourcePoint"/>
                        <mxPoint x="180" y="230" as="targetPoint"/>
                    </mxGeometry>
                </mxCell>
                <mxCell id="sMGENTJ3LTWp_Eu01ZLw-4" value="" style="endArrow=classic;html=1;" parent="1" edge="1">
                    <mxGeometry width="50" height="50" relative="1" as="geometry">
                        <mxPoint x="290" y="229.47000000000003" as="sourcePoint"/>
                        <mxPoint x="360" y="229.47000000000003" as="targetPoint"/>
                    </mxGeometry>
                </mxCell>
                <mxCell id="sMGENTJ3LTWp_Eu01ZLw-5" value="グループ画面" style="shape=umlBoundary;whiteSpace=wrap;html=1;" parent="1" vertex="1">
                    <mxGeometry x="110" y="340" width="100" height="80" as="geometry"/>
                </mxCell>
                <mxCell id="sMGENTJ3LTWp_Eu01ZLw-6" value="エラー画面" style="shape=umlBoundary;whiteSpace=wrap;html=1;" parent="1" vertex="1">
                    <mxGeometry x="130" y="430" width="100" height="80" as="geometry"/>
                </mxCell>
                <mxCell id="sMGENTJ3LTWp_Eu01ZLw-7" value="" style="endArrow=classic;html=1;" parent="1" target="sMGENTJ3LTWp_Eu01ZLw-15" edge="1">
                    <mxGeometry width="50" height="50" relative="1" as="geometry">
                        <mxPoint x="380" y="275" as="sourcePoint"/>
                        <mxPoint x="412" y="315" as="targetPoint"/>
                    </mxGeometry>
                </mxCell>
                <mxCell id="sMGENTJ3LTWp_Eu01ZLw-8" value="" style="endArrow=classic;html=1;" parent="1" edge="1">
                    <mxGeometry width="50" height="50" relative="1" as="geometry">
                        <mxPoint x="400" y="280" as="sourcePoint"/>
                        <mxPoint x="356.9986736723936" y="402.86093236458964" as="targetPoint"/>
                    </mxGeometry>
                </mxCell>
                <mxCell id="sMGENTJ3LTWp_Eu01ZLw-9" value="入力間違い" style="edgeLabel;html=1;align=center;verticalAlign=middle;resizable=0;points=[];" parent="sMGENTJ3LTWp_Eu01ZLw-8" vertex="1" connectable="0">
                    <mxGeometry x="-0.4064" y="1" relative="1" as="geometry">
                        <mxPoint as="offset"/>
                    </mxGeometry>
                </mxCell>
                <mxCell id="sMGENTJ3LTWp_Eu01ZLw-10" value="" style="endArrow=classic;html=1;" parent="1" edge="1">
                    <mxGeometry width="50" height="50" relative="1" as="geometry">
                        <mxPoint x="265" y="350" as="sourcePoint"/>
                        <mxPoint x="215" y="380" as="targetPoint"/>
                    </mxGeometry>
                </mxCell>
                <mxCell id="sMGENTJ3LTWp_Eu01ZLw-11" value="入力内容照合" style="ellipse;shape=umlControl;whiteSpace=wrap;html=1;" parent="1" vertex="1">
                    <mxGeometry x="380" y="190" width="69" height="80" as="geometry"/>
                </mxCell>
                <mxCell id="sMGENTJ3LTWp_Eu01ZLw-12" value="グループID、パスワード&lt;br&gt;入力▶" style="text;html=1;align=center;verticalAlign=middle;resizable=0;points=[];autosize=1;strokeColor=none;fillColor=none;" parent="1" vertex="1">
                    <mxGeometry x="50" y="190" width="160" height="40" as="geometry"/>
                </mxCell>
                <mxCell id="sMGENTJ3LTWp_Eu01ZLw-13" value="" style="endArrow=classic;html=1;" parent="1" target="sMGENTJ3LTWp_Eu01ZLw-6" edge="1">
                    <mxGeometry width="50" height="50" relative="1" as="geometry">
                        <mxPoint x="339" y="430" as="sourcePoint"/>
                        <mxPoint x="379" y="438.95000000000005" as="targetPoint"/>
                    </mxGeometry>
                </mxCell>
                <mxCell id="sMGENTJ3LTWp_Eu01ZLw-14" value="グループ" style="ellipse;shape=umlEntity;whiteSpace=wrap;html=1;" parent="1" vertex="1">
                    <mxGeometry x="530" y="190" width="80" height="80" as="geometry"/>
                </mxCell>
                <mxCell id="sMGENTJ3LTWp_Eu01ZLw-15" value="表示" style="ellipse;shape=umlControl;whiteSpace=wrap;html=1;" parent="1" vertex="1">
                    <mxGeometry x="275" y="290" width="70" height="80" as="geometry"/>
                </mxCell>
                <mxCell id="sMGENTJ3LTWp_Eu01ZLw-16" value="エラー画面表示" style="ellipse;shape=umlControl;whiteSpace=wrap;html=1;" parent="1" vertex="1">
                    <mxGeometry x="309" y="400" width="70" height="80" as="geometry"/>
                </mxCell>
                <mxCell id="sMGENTJ3LTWp_Eu01ZLw-17" value="正常終了時▶" style="text;html=1;align=center;verticalAlign=middle;resizable=0;points=[];autosize=1;strokeColor=none;fillColor=none;" parent="1" vertex="1">
                    <mxGeometry x="289" y="260" width="100" height="30" as="geometry"/>
                </mxCell>
                <mxCell id="sMGENTJ3LTWp_Eu01ZLw-18" value="" style="endArrow=classic;startArrow=classic;html=1;" parent="1" edge="1">
                    <mxGeometry width="50" height="50" relative="1" as="geometry">
                        <mxPoint x="460" y="230" as="sourcePoint"/>
                        <mxPoint x="520" y="230" as="targetPoint"/>
                    </mxGeometry>
                </mxCell>
            </root>
        </mxGraphModel>
    </diagram>
    <diagram id="cIU3wZV6-8qFfKKW9375" name="グループ退出">
        <mxGraphModel dx="424" dy="419" grid="1" gridSize="10" guides="1" tooltips="1" connect="1" arrows="1" fold="1" page="1" pageScale="1" pageWidth="827" pageHeight="1169" math="0" shadow="0">
            <root>
                <mxCell id="0"/>
                <mxCell id="1" parent="0"/>
                <mxCell id="ybOlB4m-9DZy0hFJwoOR-1" value="ユーザー" style="shape=umlActor;verticalLabelPosition=bottom;verticalAlign=top;html=1;outlineConnect=0;" parent="1" vertex="1">
                    <mxGeometry x="40" y="380" width="40" height="80" as="geometry"/>
                </mxCell>
                <mxCell id="ybOlB4m-9DZy0hFJwoOR-2" value="表示" style="ellipse;shape=umlControl;whiteSpace=wrap;html=1;" parent="1" vertex="1">
                    <mxGeometry x="350" y="430" width="80" height="90" as="geometry"/>
                </mxCell>
                <mxCell id="ybOlB4m-9DZy0hFJwoOR-3" value="グループ" style="ellipse;shape=umlEntity;whiteSpace=wrap;html=1;" parent="1" vertex="1">
                    <mxGeometry x="670" y="535" width="80" height="80" as="geometry"/>
                </mxCell>
                <mxCell id="ybOlB4m-9DZy0hFJwoOR-4" value="グループ確認画面" style="shape=umlBoundary;whiteSpace=wrap;html=1;" parent="1" vertex="1">
                    <mxGeometry x="180" y="380" width="100" height="80" as="geometry"/>
                </mxCell>
                <mxCell id="ybOlB4m-9DZy0hFJwoOR-5" value="トップページ" style="shape=umlBoundary;whiteSpace=wrap;html=1;" parent="1" vertex="1">
                    <mxGeometry x="180" y="700" width="100" height="80" as="geometry"/>
                </mxCell>
                <mxCell id="ybOlB4m-9DZy0hFJwoOR-6" style="edgeStyle=none;html=1;" parent="1" source="ybOlB4m-9DZy0hFJwoOR-7" target="ybOlB4m-9DZy0hFJwoOR-9" edge="1">
                    <mxGeometry relative="1" as="geometry"/>
                </mxCell>
                <mxCell id="ybOlB4m-9DZy0hFJwoOR-7" value="退出&lt;br&gt;ダイアログ" style="shape=umlBoundary;whiteSpace=wrap;html=1;" parent="1" vertex="1">
                    <mxGeometry x="180" y="535" width="100" height="80" as="geometry"/>
                </mxCell>
                <mxCell id="ybOlB4m-9DZy0hFJwoOR-8" value="表示" style="ellipse;shape=umlControl;whiteSpace=wrap;html=1;" parent="1" vertex="1">
                    <mxGeometry x="400" y="625" width="80" height="90" as="geometry"/>
                </mxCell>
                <mxCell id="ybOlB4m-9DZy0hFJwoOR-9" value="更新" style="ellipse;shape=umlControl;whiteSpace=wrap;html=1;" parent="1" vertex="1">
                    <mxGeometry x="510" y="530" width="80" height="90" as="geometry"/>
                </mxCell>
                <mxCell id="ybOlB4m-9DZy0hFJwoOR-10" value="" style="endArrow=classic;html=1;" parent="1" source="ybOlB4m-9DZy0hFJwoOR-1" edge="1">
                    <mxGeometry width="50" height="50" relative="1" as="geometry">
                        <mxPoint x="80" y="370" as="sourcePoint"/>
                        <mxPoint x="180" y="420" as="targetPoint"/>
                    </mxGeometry>
                </mxCell>
                <mxCell id="ybOlB4m-9DZy0hFJwoOR-11" value="" style="endArrow=classic;html=1;exitX=1.007;exitY=0.458;exitDx=0;exitDy=0;exitPerimeter=0;" parent="1" source="ybOlB4m-9DZy0hFJwoOR-4" target="ybOlB4m-9DZy0hFJwoOR-2" edge="1">
                    <mxGeometry width="50" height="50" relative="1" as="geometry">
                        <mxPoint x="390" y="440" as="sourcePoint"/>
                        <mxPoint x="440" y="390" as="targetPoint"/>
                    </mxGeometry>
                </mxCell>
                <mxCell id="ybOlB4m-9DZy0hFJwoOR-12" value="" style="endArrow=classic;startArrow=classic;html=1;entryX=0;entryY=0.5;entryDx=0;entryDy=0;" parent="1" source="ybOlB4m-9DZy0hFJwoOR-9" target="ybOlB4m-9DZy0hFJwoOR-3" edge="1">
                    <mxGeometry width="50" height="50" relative="1" as="geometry">
                        <mxPoint x="640" y="510" as="sourcePoint"/>
                        <mxPoint x="520" y="480" as="targetPoint"/>
                    </mxGeometry>
                </mxCell>
                <mxCell id="ybOlB4m-9DZy0hFJwoOR-13" value="" style="endArrow=classic;html=1;exitX=-0.025;exitY=0.578;exitDx=0;exitDy=0;exitPerimeter=0;entryX=0.88;entryY=0.146;entryDx=0;entryDy=0;entryPerimeter=0;" parent="1" source="ybOlB4m-9DZy0hFJwoOR-2" target="ybOlB4m-9DZy0hFJwoOR-7" edge="1">
                    <mxGeometry width="50" height="50" relative="1" as="geometry">
                        <mxPoint x="390" y="480" as="sourcePoint"/>
                        <mxPoint x="280" y="540" as="targetPoint"/>
                    </mxGeometry>
                </mxCell>
                <mxCell id="ybOlB4m-9DZy0hFJwoOR-14" value="" style="endArrow=classic;html=1;entryX=0.867;entryY=0.244;entryDx=0;entryDy=0;entryPerimeter=0;" parent="1" source="ybOlB4m-9DZy0hFJwoOR-9" target="ybOlB4m-9DZy0hFJwoOR-8" edge="1">
                    <mxGeometry width="50" height="50" relative="1" as="geometry">
                        <mxPoint x="520" y="460" as="sourcePoint"/>
                        <mxPoint x="440" y="430" as="targetPoint"/>
                    </mxGeometry>
                </mxCell>
                <mxCell id="ybOlB4m-9DZy0hFJwoOR-15" value="" style="endArrow=classic;html=1;exitX=0;exitY=0.659;exitDx=0;exitDy=0;exitPerimeter=0;entryX=1.007;entryY=0.508;entryDx=0;entryDy=0;entryPerimeter=0;" parent="1" source="ybOlB4m-9DZy0hFJwoOR-8" target="ybOlB4m-9DZy0hFJwoOR-5" edge="1">
                    <mxGeometry width="50" height="50" relative="1" as="geometry">
                        <mxPoint x="360" y="570" as="sourcePoint"/>
                        <mxPoint x="410" y="520" as="targetPoint"/>
                    </mxGeometry>
                </mxCell>
                <mxCell id="ybOlB4m-9DZy0hFJwoOR-16" value="退出をクリック▶" style="text;html=1;strokeColor=none;fillColor=none;align=center;verticalAlign=middle;whiteSpace=wrap;rounded=0;" parent="1" vertex="1">
                    <mxGeometry x="80" y="390" width="100" height="30" as="geometry"/>
                </mxCell>
                <mxCell id="ybOlB4m-9DZy0hFJwoOR-17" value="表示" style="ellipse;shape=umlControl;whiteSpace=wrap;html=1;" parent="1" vertex="1">
                    <mxGeometry x="460" y="765" width="80" height="90" as="geometry"/>
                </mxCell>
                <mxCell id="ybOlB4m-9DZy0hFJwoOR-18" value="退出処理&lt;br&gt;エラー" style="shape=umlBoundary;whiteSpace=wrap;html=1;" parent="1" vertex="1">
                    <mxGeometry x="180" y="820" width="100" height="80" as="geometry"/>
                </mxCell>
                <mxCell id="ybOlB4m-9DZy0hFJwoOR-19" value="" style="endArrow=classic;html=1;entryX=1.027;entryY=0.458;entryDx=0;entryDy=0;entryPerimeter=0;exitX=0.017;exitY=0.504;exitDx=0;exitDy=0;exitPerimeter=0;" parent="1" source="ybOlB4m-9DZy0hFJwoOR-17" target="ybOlB4m-9DZy0hFJwoOR-18" edge="1">
                    <mxGeometry width="50" height="50" relative="1" as="geometry">
                        <mxPoint x="360" y="680" as="sourcePoint"/>
                        <mxPoint x="410" y="630" as="targetPoint"/>
                    </mxGeometry>
                </mxCell>
                <mxCell id="ybOlB4m-9DZy0hFJwoOR-20" value="" style="endArrow=classic;html=1;entryX=0.867;entryY=0.23;entryDx=0;entryDy=0;entryPerimeter=0;" parent="1" source="ybOlB4m-9DZy0hFJwoOR-9" target="ybOlB4m-9DZy0hFJwoOR-17" edge="1">
                    <mxGeometry width="50" height="50" relative="1" as="geometry">
                        <mxPoint x="520" y="460" as="sourcePoint"/>
                        <mxPoint x="410" y="630" as="targetPoint"/>
                    </mxGeometry>
                </mxCell>
                <mxCell id="ybOlB4m-9DZy0hFJwoOR-21" value="システム&lt;br&gt;不良時▼" style="text;html=1;align=center;verticalAlign=middle;resizable=0;points=[];autosize=1;strokeColor=none;fillColor=none;" parent="1" vertex="1">
                    <mxGeometry x="530" y="700" width="70" height="40" as="geometry"/>
                </mxCell>
                <mxCell id="ybOlB4m-9DZy0hFJwoOR-22" value="正常終了時▼" style="text;html=1;align=center;verticalAlign=middle;resizable=0;points=[];autosize=1;strokeColor=none;fillColor=none;" parent="1" vertex="1">
                    <mxGeometry x="400" y="600" width="100" height="30" as="geometry"/>
                </mxCell>
                <mxCell id="ybOlB4m-9DZy0hFJwoOR-23" value="" style="endArrow=classic;html=1;entryX=0.58;entryY=1.025;entryDx=0;entryDy=0;entryPerimeter=0;exitX=0.564;exitY=-0.037;exitDx=0;exitDy=0;exitPerimeter=0;" parent="1" source="ybOlB4m-9DZy0hFJwoOR-7" target="ybOlB4m-9DZy0hFJwoOR-4" edge="1">
                    <mxGeometry width="50" height="50" relative="1" as="geometry">
                        <mxPoint x="238" y="520" as="sourcePoint"/>
                        <mxPoint x="300" y="550" as="targetPoint"/>
                    </mxGeometry>
                </mxCell>
                <mxCell id="ybOlB4m-9DZy0hFJwoOR-24" value="" style="endArrow=classic;html=1;entryX=0;entryY=0.458;entryDx=0;entryDy=0;entryPerimeter=0;" parent="1" target="ybOlB4m-9DZy0hFJwoOR-7" edge="1">
                    <mxGeometry width="50" height="50" relative="1" as="geometry">
                        <mxPoint x="80" y="420" as="sourcePoint"/>
                        <mxPoint x="300" y="550" as="targetPoint"/>
                    </mxGeometry>
                </mxCell>
                <mxCell id="ybOlB4m-9DZy0hFJwoOR-25" value="はい/いいえを選択▶" style="text;html=1;align=center;verticalAlign=middle;resizable=0;points=[];autosize=1;strokeColor=none;fillColor=none;" parent="1" vertex="1">
                    <mxGeometry x="65" y="480" width="130" height="30" as="geometry"/>
                </mxCell>
                <mxCell id="ybOlB4m-9DZy0hFJwoOR-26" value="いいえ&lt;br&gt;選択時▲" style="text;html=1;align=center;verticalAlign=middle;resizable=0;points=[];autosize=1;strokeColor=none;fillColor=none;" parent="1" vertex="1">
                    <mxGeometry x="240" y="470" width="70" height="40" as="geometry"/>
                </mxCell>
                <mxCell id="vejXJjYVCODWIGoWRgKd-1" value="はい選択時▶" style="text;html=1;align=center;verticalAlign=middle;resizable=0;points=[];autosize=1;strokeColor=none;fillColor=none;" parent="1" vertex="1">
                    <mxGeometry x="350" y="545" width="100" height="30" as="geometry"/>
                </mxCell>
            </root>
        </mxGraphModel>
    </diagram>
    <diagram id="5SX-36IdxXHDZSWkke02" name="状況変更">
        <mxGraphModel dx="778" dy="419" grid="1" gridSize="10" guides="1" tooltips="1" connect="1" arrows="1" fold="1" page="1" pageScale="1" pageWidth="827" pageHeight="1169" math="0" shadow="0">
            <root>
                <mxCell id="0"/>
                <mxCell id="1" parent="0"/>
                <mxCell id="ElKB3q9KncF_34kqtlDt-1" value="ユーザー" style="shape=umlActor;verticalLabelPosition=bottom;verticalAlign=top;html=1;outlineConnect=0;" parent="1" vertex="1">
                    <mxGeometry x="80" y="200" width="40" height="80" as="geometry"/>
                </mxCell>
                <mxCell id="ElKB3q9KncF_34kqtlDt-2" value="表示" style="ellipse;shape=umlControl;whiteSpace=wrap;html=1;" parent="1" vertex="1">
                    <mxGeometry x="380" y="290" width="80" height="90" as="geometry"/>
                </mxCell>
                <mxCell id="ElKB3q9KncF_34kqtlDt-3" value="ユーザー" style="ellipse;shape=umlEntity;whiteSpace=wrap;html=1;" parent="1" vertex="1">
                    <mxGeometry x="640" y="200" width="80" height="80" as="geometry"/>
                </mxCell>
                <mxCell id="ElKB3q9KncF_34kqtlDt-4" value="マップ画面" style="shape=umlBoundary;whiteSpace=wrap;html=1;" parent="1" vertex="1">
                    <mxGeometry x="220" y="200" width="100" height="80" as="geometry"/>
                </mxCell>
                <mxCell id="ElKB3q9KncF_34kqtlDt-6" value="マップ画面" style="shape=umlBoundary;whiteSpace=wrap;html=1;" parent="1" vertex="1">
                    <mxGeometry x="220" y="320" width="100" height="80" as="geometry"/>
                </mxCell>
                <mxCell id="ElKB3q9KncF_34kqtlDt-8" value="ユーザー状況変更" style="ellipse;shape=umlControl;whiteSpace=wrap;html=1;" parent="1" vertex="1">
                    <mxGeometry x="520" y="190" width="80" height="90" as="geometry"/>
                </mxCell>
                <mxCell id="ElKB3q9KncF_34kqtlDt-9" value="" style="endArrow=classic;html=1;" parent="1" source="ElKB3q9KncF_34kqtlDt-1" edge="1">
                    <mxGeometry width="50" height="50" relative="1" as="geometry">
                        <mxPoint x="120" y="190" as="sourcePoint"/>
                        <mxPoint x="220" y="240" as="targetPoint"/>
                    </mxGeometry>
                </mxCell>
                <mxCell id="ElKB3q9KncF_34kqtlDt-10" value="" style="endArrow=classic;html=1;exitX=1.007;exitY=0.458;exitDx=0;exitDy=0;exitPerimeter=0;entryX=-0.008;entryY=0.533;entryDx=0;entryDy=0;entryPerimeter=0;" parent="1" source="ElKB3q9KncF_34kqtlDt-4" target="ElKB3q9KncF_34kqtlDt-8" edge="1">
                    <mxGeometry width="50" height="50" relative="1" as="geometry">
                        <mxPoint x="430" y="260" as="sourcePoint"/>
                        <mxPoint x="480" y="210" as="targetPoint"/>
                    </mxGeometry>
                </mxCell>
                <mxCell id="ElKB3q9KncF_34kqtlDt-11" value="" style="endArrow=classic;startArrow=classic;html=1;entryX=0;entryY=0.5;entryDx=0;entryDy=0;" parent="1" target="ElKB3q9KncF_34kqtlDt-3" edge="1">
                    <mxGeometry width="50" height="50" relative="1" as="geometry">
                        <mxPoint x="600" y="240" as="sourcePoint"/>
                        <mxPoint x="480" y="210" as="targetPoint"/>
                    </mxGeometry>
                </mxCell>
                <mxCell id="ElKB3q9KncF_34kqtlDt-12" value="" style="endArrow=classic;html=1;entryX=1.025;entryY=0.526;entryDx=0;entryDy=0;entryPerimeter=0;" parent="1" target="ElKB3q9KncF_34kqtlDt-2" edge="1">
                    <mxGeometry width="50" height="50" relative="1" as="geometry">
                        <mxPoint x="560" y="280" as="sourcePoint"/>
                        <mxPoint x="480" y="250" as="targetPoint"/>
                    </mxGeometry>
                </mxCell>
                <mxCell id="ElKB3q9KncF_34kqtlDt-13" value="" style="endArrow=classic;html=1;exitX=-0.025;exitY=0.578;exitDx=0;exitDy=0;exitPerimeter=0;" parent="1" source="ElKB3q9KncF_34kqtlDt-2" edge="1">
                    <mxGeometry width="50" height="50" relative="1" as="geometry">
                        <mxPoint x="430" y="300" as="sourcePoint"/>
                        <mxPoint x="320" y="360" as="targetPoint"/>
                    </mxGeometry>
                </mxCell>
                <mxCell id="ElKB3q9KncF_34kqtlDt-16" value="自分の状況を&lt;br&gt;クリック▶" style="text;html=1;strokeColor=none;fillColor=none;align=center;verticalAlign=middle;whiteSpace=wrap;rounded=0;" parent="1" vertex="1">
                    <mxGeometry x="120" y="250" width="100" height="30" as="geometry"/>
                </mxCell>
                <mxCell id="ElKB3q9KncF_34kqtlDt-23" value="正常完了時▼" style="text;html=1;align=center;verticalAlign=middle;resizable=0;points=[];autosize=1;strokeColor=none;fillColor=none;" parent="1" vertex="1">
                    <mxGeometry x="440" y="280" width="100" height="30" as="geometry"/>
                </mxCell>
                <mxCell id="ElKB3q9KncF_34kqtlDt-24" value="情報更新&lt;br&gt;エラー画面" style="shape=umlBoundary;whiteSpace=wrap;html=1;" parent="1" vertex="1">
                    <mxGeometry x="220" y="460" width="100" height="80" as="geometry"/>
                </mxCell>
                <mxCell id="ElKB3q9KncF_34kqtlDt-25" value="表示" style="ellipse;shape=umlControl;whiteSpace=wrap;html=1;" parent="1" vertex="1">
                    <mxGeometry x="470" y="430" width="80" height="90" as="geometry"/>
                </mxCell>
                <mxCell id="ElKB3q9KncF_34kqtlDt-26" value="" style="endArrow=classic;html=1;exitX=0.5;exitY=1.007;exitDx=0;exitDy=0;exitPerimeter=0;entryX=0.758;entryY=0.148;entryDx=0;entryDy=0;entryPerimeter=0;" parent="1" source="ElKB3q9KncF_34kqtlDt-8" target="ElKB3q9KncF_34kqtlDt-25" edge="1">
                    <mxGeometry width="50" height="50" relative="1" as="geometry">
                        <mxPoint x="550" y="510" as="sourcePoint"/>
                        <mxPoint x="600" y="460" as="targetPoint"/>
                    </mxGeometry>
                </mxCell>
                <mxCell id="ElKB3q9KncF_34kqtlDt-27" value="" style="endArrow=classic;html=1;exitX=-0.033;exitY=0.57;exitDx=0;exitDy=0;exitPerimeter=0;entryX=1.027;entryY=0.508;entryDx=0;entryDy=0;entryPerimeter=0;" parent="1" source="ElKB3q9KncF_34kqtlDt-25" target="ElKB3q9KncF_34kqtlDt-24" edge="1">
                    <mxGeometry width="50" height="50" relative="1" as="geometry">
                        <mxPoint x="550" y="640" as="sourcePoint"/>
                        <mxPoint x="600" y="590" as="targetPoint"/>
                    </mxGeometry>
                </mxCell>
                <mxCell id="ElKB3q9KncF_34kqtlDt-28" value="システム&lt;br&gt;不良時▼" style="text;html=1;align=center;verticalAlign=middle;resizable=0;points=[];autosize=1;strokeColor=none;fillColor=none;" parent="1" vertex="1">
                    <mxGeometry x="480" y="360" width="70" height="40" as="geometry"/>
                </mxCell>
            </root>
        </mxGraphModel>
    </diagram>
    <diagram id="EhdvIxzpB5uBowc1hbdK" name="位置情報表示">
        <mxGraphModel dx="509" dy="419" grid="1" gridSize="10" guides="1" tooltips="1" connect="1" arrows="1" fold="1" page="1" pageScale="1" pageWidth="827" pageHeight="1169" math="0" shadow="0">
            <root>
                <mxCell id="0"/>
                <mxCell id="1" parent="0"/>
                <mxCell id="p6p_EUbDa11gkW9T7EBI-1" value="ユーザー" style="shape=umlActor;verticalLabelPosition=bottom;verticalAlign=top;html=1;outlineConnect=0;" parent="1" vertex="1">
                    <mxGeometry x="80" y="200" width="40" height="80" as="geometry"/>
                </mxCell>
                <mxCell id="p6p_EUbDa11gkW9T7EBI-2" value="位置情報" style="ellipse;shape=umlEntity;whiteSpace=wrap;html=1;" parent="1" vertex="1">
                    <mxGeometry x="640" y="200" width="80" height="80" as="geometry"/>
                </mxCell>
                <mxCell id="p6p_EUbDa11gkW9T7EBI-3" value="マップ画面" style="shape=umlBoundary;whiteSpace=wrap;html=1;" parent="1" vertex="1">
                    <mxGeometry x="220" y="200" width="100" height="80" as="geometry"/>
                </mxCell>
                <mxCell id="p6p_EUbDa11gkW9T7EBI-4" value="データ&lt;br&gt;取得" style="ellipse;shape=umlControl;whiteSpace=wrap;html=1;" parent="1" vertex="1">
                    <mxGeometry x="520" y="190" width="80" height="90" as="geometry"/>
                </mxCell>
                <mxCell id="p6p_EUbDa11gkW9T7EBI-5" value="" style="endArrow=classic;html=1;" parent="1" source="p6p_EUbDa11gkW9T7EBI-1" edge="1">
                    <mxGeometry width="50" height="50" relative="1" as="geometry">
                        <mxPoint x="120" y="190" as="sourcePoint"/>
                        <mxPoint x="220" y="240" as="targetPoint"/>
                    </mxGeometry>
                </mxCell>
                <mxCell id="p6p_EUbDa11gkW9T7EBI-6" value="" style="endArrow=classic;html=1;exitX=1.007;exitY=0.458;exitDx=0;exitDy=0;exitPerimeter=0;entryX=-0.008;entryY=0.533;entryDx=0;entryDy=0;entryPerimeter=0;" parent="1" source="p6p_EUbDa11gkW9T7EBI-3" target="p6p_EUbDa11gkW9T7EBI-4" edge="1">
                    <mxGeometry width="50" height="50" relative="1" as="geometry">
                        <mxPoint x="430" y="260" as="sourcePoint"/>
                        <mxPoint x="480" y="210" as="targetPoint"/>
                    </mxGeometry>
                </mxCell>
                <mxCell id="p6p_EUbDa11gkW9T7EBI-7" value="" style="endArrow=classic;startArrow=classic;html=1;entryX=0;entryY=0.5;entryDx=0;entryDy=0;" parent="1" target="p6p_EUbDa11gkW9T7EBI-2" edge="1">
                    <mxGeometry width="50" height="50" relative="1" as="geometry">
                        <mxPoint x="600" y="240" as="sourcePoint"/>
                        <mxPoint x="480" y="210" as="targetPoint"/>
                    </mxGeometry>
                </mxCell>
                <mxCell id="p6p_EUbDa11gkW9T7EBI-8" value="" style="endArrow=classic;html=1;" parent="1" target="p6p_EUbDa11gkW9T7EBI-12" edge="1">
                    <mxGeometry width="50" height="50" relative="1" as="geometry">
                        <mxPoint x="560" y="280" as="sourcePoint"/>
                        <mxPoint x="462" y="337.34000000000003" as="targetPoint"/>
                    </mxGeometry>
                </mxCell>
                <mxCell id="p6p_EUbDa11gkW9T7EBI-9" value="" style="endArrow=classic;html=1;exitX=-0.041;exitY=0.61;exitDx=0;exitDy=0;exitPerimeter=0;entryX=0.996;entryY=0.384;entryDx=0;entryDy=0;entryPerimeter=0;" parent="1" source="p6p_EUbDa11gkW9T7EBI-12" target="p6p_EUbDa11gkW9T7EBI-13" edge="1">
                    <mxGeometry width="50" height="50" relative="1" as="geometry">
                        <mxPoint x="378" y="342.02" as="sourcePoint"/>
                        <mxPoint x="320" y="360" as="targetPoint"/>
                    </mxGeometry>
                </mxCell>
                <mxCell id="p6p_EUbDa11gkW9T7EBI-11" value="正常終了時▼" style="text;html=1;align=center;verticalAlign=middle;resizable=0;points=[];autosize=1;strokeColor=none;fillColor=none;" parent="1" vertex="1">
                    <mxGeometry x="430" y="270" width="100" height="30" as="geometry"/>
                </mxCell>
                <mxCell id="p6p_EUbDa11gkW9T7EBI-12" value="表示" style="ellipse;shape=umlControl;whiteSpace=wrap;html=1;" parent="1" vertex="1">
                    <mxGeometry x="390" y="290" width="70" height="80" as="geometry"/>
                </mxCell>
                <mxCell id="p6p_EUbDa11gkW9T7EBI-13" value="マップ画面" style="shape=umlBoundary;whiteSpace=wrap;html=1;" parent="1" vertex="1">
                    <mxGeometry x="190" y="320" width="100" height="80" as="geometry"/>
                </mxCell>
                <mxCell id="MlC65wO2wEPsWMD_Srzb-1" value="" style="endArrow=classic;html=1;" parent="1" target="GwH2efNNcai2Da-VL5B1-1" edge="1">
                    <mxGeometry width="50" height="50" relative="1" as="geometry">
                        <mxPoint x="560" y="280" as="sourcePoint"/>
                        <mxPoint x="480" y="380" as="targetPoint"/>
                    </mxGeometry>
                </mxCell>
                <mxCell id="MlC65wO2wEPsWMD_Srzb-2" value="" style="endArrow=classic;html=1;" parent="1" target="MlC65wO2wEPsWMD_Srzb-3" edge="1">
                    <mxGeometry width="50" height="50" relative="1" as="geometry">
                        <mxPoint x="560" y="280" as="sourcePoint"/>
                        <mxPoint x="560" y="440" as="targetPoint"/>
                    </mxGeometry>
                </mxCell>
                <mxCell id="GwH2efNNcai2Da-VL5B1-3" style="edgeStyle=none;html=1;entryX=0.981;entryY=0.32;entryDx=0;entryDy=0;entryPerimeter=0;" parent="1" source="MlC65wO2wEPsWMD_Srzb-3" target="ujbgg-GbwN-FWhkTHKGv-3" edge="1">
                    <mxGeometry relative="1" as="geometry"/>
                </mxCell>
                <mxCell id="MlC65wO2wEPsWMD_Srzb-3" value="表示" style="ellipse;shape=umlControl;whiteSpace=wrap;html=1;" parent="1" vertex="1">
                    <mxGeometry x="580" y="540" width="70" height="80" as="geometry"/>
                </mxCell>
                <mxCell id="ujbgg-GbwN-FWhkTHKGv-2" value="エラー内容ポップアップ" style="shape=umlBoundary;whiteSpace=wrap;html=1;" parent="1" vertex="1">
                    <mxGeometry x="280" y="480" width="100" height="80" as="geometry"/>
                </mxCell>
                <mxCell id="ujbgg-GbwN-FWhkTHKGv-3" value="マップ画面" style="shape=umlBoundary;whiteSpace=wrap;html=1;" parent="1" vertex="1">
                    <mxGeometry x="345" y="580" width="100" height="80" as="geometry"/>
                </mxCell>
                <mxCell id="GwH2efNNcai2Da-VL5B1-2" style="edgeStyle=none;html=1;entryX=1;entryY=0.25;entryDx=0;entryDy=0;entryPerimeter=0;" parent="1" source="GwH2efNNcai2Da-VL5B1-1" target="ujbgg-GbwN-FWhkTHKGv-2" edge="1">
                    <mxGeometry relative="1" as="geometry"/>
                </mxCell>
                <mxCell id="GwH2efNNcai2Da-VL5B1-1" value="表示" style="ellipse;shape=umlControl;whiteSpace=wrap;html=1;" parent="1" vertex="1">
                    <mxGeometry x="440" y="430" width="70" height="80" as="geometry"/>
                </mxCell>
                <mxCell id="GwH2efNNcai2Da-VL5B1-4" value="マップ上表示" style="text;html=1;align=center;verticalAlign=middle;resizable=0;points=[];autosize=1;strokeColor=none;fillColor=none;" parent="1" vertex="1">
                    <mxGeometry x="345" y="460" width="100" height="30" as="geometry"/>
                </mxCell>
                <mxCell id="PURTU-7VSoYxEN_v4R7Z-1" value="自身の位置情報が取得できない場合▼" style="text;html=1;align=center;verticalAlign=middle;resizable=0;points=[];autosize=1;strokeColor=none;fillColor=none;" parent="1" vertex="1">
                    <mxGeometry x="280" y="390" width="230" height="30" as="geometry"/>
                </mxCell>
                <mxCell id="PURTU-7VSoYxEN_v4R7Z-2" value="グループメンバーの位置情報が取得ができない場合▼" style="text;html=1;align=center;verticalAlign=middle;resizable=0;points=[];autosize=1;strokeColor=none;fillColor=none;" parent="1" vertex="1">
                    <mxGeometry x="490" y="430" width="310" height="30" as="geometry"/>
                </mxCell>
            </root>
        </mxGraphModel>
    </diagram>
    <diagram id="b137FP804yb--_4rBkbR" name="ルート表示">
        <mxGraphModel dx="615" dy="698" grid="1" gridSize="10" guides="1" tooltips="1" connect="1" arrows="1" fold="1" page="1" pageScale="1" pageWidth="827" pageHeight="1169" math="0" shadow="0">
            <root>
                <mxCell id="0"/>
                <mxCell id="1" parent="0"/>
                <mxCell id="2NF9BMgUyYExiptK3kzh-1" value="ユーザー" style="shape=umlActor;verticalLabelPosition=bottom;verticalAlign=top;html=1;outlineConnect=0;" parent="1" vertex="1">
                    <mxGeometry x="80" y="200" width="40" height="80" as="geometry"/>
                </mxCell>
                <mxCell id="2NF9BMgUyYExiptK3kzh-2" value="ルート作成" style="ellipse;shape=umlControl;whiteSpace=wrap;html=1;" parent="1" vertex="1">
                    <mxGeometry x="380" y="290" width="80" height="90" as="geometry"/>
                </mxCell>
                <mxCell id="2NF9BMgUyYExiptK3kzh-3" value="位置情報" style="ellipse;shape=umlEntity;whiteSpace=wrap;html=1;" parent="1" vertex="1">
                    <mxGeometry x="640" y="200" width="80" height="80" as="geometry"/>
                </mxCell>
                <mxCell id="2NF9BMgUyYExiptK3kzh-4" value="マップ画面" style="shape=umlBoundary;whiteSpace=wrap;html=1;" parent="1" vertex="1">
                    <mxGeometry x="220" y="200" width="100" height="80" as="geometry"/>
                </mxCell>
                <mxCell id="2NF9BMgUyYExiptK3kzh-5" value="マップ画面" style="shape=umlBoundary;whiteSpace=wrap;html=1;" parent="1" vertex="1">
                    <mxGeometry x="220" y="320" width="100" height="80" as="geometry"/>
                </mxCell>
                <mxCell id="2NF9BMgUyYExiptK3kzh-6" value="位置情報取得" style="ellipse;shape=umlControl;whiteSpace=wrap;html=1;" parent="1" vertex="1">
                    <mxGeometry x="520" y="190" width="80" height="90" as="geometry"/>
                </mxCell>
                <mxCell id="2NF9BMgUyYExiptK3kzh-7" value="" style="endArrow=classic;html=1;" parent="1" source="2NF9BMgUyYExiptK3kzh-1" edge="1">
                    <mxGeometry width="50" height="50" relative="1" as="geometry">
                        <mxPoint x="120" y="190" as="sourcePoint"/>
                        <mxPoint x="220" y="240" as="targetPoint"/>
                    </mxGeometry>
                </mxCell>
                <mxCell id="2NF9BMgUyYExiptK3kzh-8" value="" style="endArrow=classic;html=1;exitX=1.007;exitY=0.458;exitDx=0;exitDy=0;exitPerimeter=0;entryX=-0.008;entryY=0.533;entryDx=0;entryDy=0;entryPerimeter=0;" parent="1" source="2NF9BMgUyYExiptK3kzh-4" target="2NF9BMgUyYExiptK3kzh-6" edge="1">
                    <mxGeometry width="50" height="50" relative="1" as="geometry">
                        <mxPoint x="430" y="260" as="sourcePoint"/>
                        <mxPoint x="480" y="210" as="targetPoint"/>
                    </mxGeometry>
                </mxCell>
                <mxCell id="2NF9BMgUyYExiptK3kzh-9" value="" style="endArrow=classic;startArrow=classic;html=1;entryX=0;entryY=0.5;entryDx=0;entryDy=0;" parent="1" target="2NF9BMgUyYExiptK3kzh-3" edge="1">
                    <mxGeometry width="50" height="50" relative="1" as="geometry">
                        <mxPoint x="600" y="240" as="sourcePoint"/>
                        <mxPoint x="480" y="210" as="targetPoint"/>
                    </mxGeometry>
                </mxCell>
                <mxCell id="2NF9BMgUyYExiptK3kzh-10" value="" style="endArrow=classic;html=1;entryX=1.025;entryY=0.526;entryDx=0;entryDy=0;entryPerimeter=0;" parent="1" target="2NF9BMgUyYExiptK3kzh-2" edge="1">
                    <mxGeometry width="50" height="50" relative="1" as="geometry">
                        <mxPoint x="560" y="280" as="sourcePoint"/>
                        <mxPoint x="480" y="250" as="targetPoint"/>
                    </mxGeometry>
                </mxCell>
                <mxCell id="2NF9BMgUyYExiptK3kzh-11" value="" style="endArrow=classic;html=1;exitX=-0.025;exitY=0.578;exitDx=0;exitDy=0;exitPerimeter=0;" parent="1" source="2NF9BMgUyYExiptK3kzh-2" edge="1">
                    <mxGeometry width="50" height="50" relative="1" as="geometry">
                        <mxPoint x="430" y="300" as="sourcePoint"/>
                        <mxPoint x="320" y="360" as="targetPoint"/>
                    </mxGeometry>
                </mxCell>
                <mxCell id="2NF9BMgUyYExiptK3kzh-13" value="正常終了時▼" style="text;html=1;align=center;verticalAlign=middle;resizable=0;points=[];autosize=1;strokeColor=none;fillColor=none;" parent="1" vertex="1">
                    <mxGeometry x="440" y="280" width="100" height="30" as="geometry"/>
                </mxCell>
                <mxCell id="2NF9BMgUyYExiptK3kzh-14" value="ルート更新&lt;br&gt;エラー画面" style="shape=umlBoundary;whiteSpace=wrap;html=1;" parent="1" vertex="1">
                    <mxGeometry x="220" y="460" width="100" height="80" as="geometry"/>
                </mxCell>
                <mxCell id="2NF9BMgUyYExiptK3kzh-15" value="表示" style="ellipse;shape=umlControl;whiteSpace=wrap;html=1;" parent="1" vertex="1">
                    <mxGeometry x="470" y="430" width="80" height="90" as="geometry"/>
                </mxCell>
                <mxCell id="2NF9BMgUyYExiptK3kzh-16" value="" style="endArrow=classic;html=1;exitX=0.5;exitY=1.007;exitDx=0;exitDy=0;exitPerimeter=0;entryX=0.758;entryY=0.148;entryDx=0;entryDy=0;entryPerimeter=0;" parent="1" source="2NF9BMgUyYExiptK3kzh-6" target="2NF9BMgUyYExiptK3kzh-15" edge="1">
                    <mxGeometry width="50" height="50" relative="1" as="geometry">
                        <mxPoint x="550" y="510" as="sourcePoint"/>
                        <mxPoint x="600" y="460" as="targetPoint"/>
                    </mxGeometry>
                </mxCell>
                <mxCell id="2NF9BMgUyYExiptK3kzh-17" value="" style="endArrow=classic;html=1;exitX=-0.033;exitY=0.57;exitDx=0;exitDy=0;exitPerimeter=0;entryX=1.027;entryY=0.508;entryDx=0;entryDy=0;entryPerimeter=0;" parent="1" source="2NF9BMgUyYExiptK3kzh-15" target="2NF9BMgUyYExiptK3kzh-14" edge="1">
                    <mxGeometry width="50" height="50" relative="1" as="geometry">
                        <mxPoint x="550" y="640" as="sourcePoint"/>
                        <mxPoint x="600" y="590" as="targetPoint"/>
                    </mxGeometry>
                </mxCell>
                <mxCell id="2NF9BMgUyYExiptK3kzh-18" value="システム&lt;br&gt;不良時▼" style="text;html=1;align=center;verticalAlign=middle;resizable=0;points=[];autosize=1;strokeColor=none;fillColor=none;" parent="1" vertex="1">
                    <mxGeometry x="480" y="360" width="70" height="40" as="geometry"/>
                </mxCell>
            </root>
        </mxGraphModel>
    </diagram>
    <diagram id="9mEesem1OsFEmbEfdkHl" name="システム管理者チャット">
        <mxGraphModel dx="509" dy="419" grid="1" gridSize="10" guides="1" tooltips="1" connect="1" arrows="1" fold="1" page="1" pageScale="1" pageWidth="827" pageHeight="1169" math="0" shadow="0">
            <root>
                <mxCell id="0"/>
                <mxCell id="1" parent="0"/>
                <mxCell id="MNqsy0E5PyJ7OesBoapI-3" style="edgeStyle=none;html=1;" parent="1" source="Hk_bj5TGi2icnV208QTR-2" edge="1">
                    <mxGeometry relative="1" as="geometry">
                        <mxPoint x="220" y="240" as="targetPoint"/>
                    </mxGeometry>
                </mxCell>
                <mxCell id="vAUPFH7-gjGTlFdDS7d9-1" style="edgeStyle=none;html=1;" parent="1" source="Hk_bj5TGi2icnV208QTR-2" target="Hk_bj5TGi2icnV208QTR-6" edge="1">
                    <mxGeometry relative="1" as="geometry"/>
                </mxCell>
                <mxCell id="Hk_bj5TGi2icnV208QTR-2" value="ユーザー" style="shape=umlActor;verticalLabelPosition=bottom;verticalAlign=top;html=1;outlineConnect=0;" parent="1" vertex="1">
                    <mxGeometry x="80" y="200" width="40" height="80" as="geometry"/>
                </mxCell>
                <mxCell id="vAUPFH7-gjGTlFdDS7d9-4" style="edgeStyle=none;html=1;" parent="1" source="Hk_bj5TGi2icnV208QTR-3" target="Hk_bj5TGi2icnV208QTR-6" edge="1">
                    <mxGeometry relative="1" as="geometry"/>
                </mxCell>
                <mxCell id="Hk_bj5TGi2icnV208QTR-3" value="表示" style="ellipse;shape=umlControl;whiteSpace=wrap;html=1;" parent="1" vertex="1">
                    <mxGeometry x="410" y="370" width="80" height="90" as="geometry"/>
                </mxCell>
                <mxCell id="Hk_bj5TGi2icnV208QTR-6" value="チャット画面" style="shape=umlBoundary;whiteSpace=wrap;html=1;" parent="1" vertex="1">
                    <mxGeometry x="120" y="430" width="100" height="80" as="geometry"/>
                </mxCell>
                <mxCell id="MNqsy0E5PyJ7OesBoapI-5" style="edgeStyle=none;html=1;startArrow=classic;startFill=1;" parent="1" source="Hk_bj5TGi2icnV208QTR-7" target="MNqsy0E5PyJ7OesBoapI-1" edge="1">
                    <mxGeometry relative="1" as="geometry"/>
                </mxCell>
                <mxCell id="vAUPFH7-gjGTlFdDS7d9-5" style="edgeStyle=none;html=1;entryX=0.479;entryY=0.226;entryDx=0;entryDy=0;entryPerimeter=0;" parent="1" source="Hk_bj5TGi2icnV208QTR-7" target="Hk_bj5TGi2icnV208QTR-3" edge="1">
                    <mxGeometry relative="1" as="geometry"/>
                </mxCell>
                <mxCell id="vAUPFH7-gjGTlFdDS7d9-6" style="edgeStyle=none;html=1;" parent="1" source="Hk_bj5TGi2icnV208QTR-7" edge="1">
                    <mxGeometry relative="1" as="geometry">
                        <mxPoint x="620" y="290" as="targetPoint"/>
                    </mxGeometry>
                </mxCell>
                <mxCell id="Hk_bj5TGi2icnV208QTR-7" value="取得" style="ellipse;shape=umlControl;whiteSpace=wrap;html=1;" parent="1" vertex="1">
                    <mxGeometry x="430" y="195" width="80" height="90" as="geometry"/>
                </mxCell>
                <mxCell id="Hk_bj5TGi2icnV208QTR-15" value="チャット更新&lt;br&gt;エラー画面" style="shape=umlBoundary;whiteSpace=wrap;html=1;" parent="1" vertex="1">
                    <mxGeometry x="620" y="430" width="100" height="80" as="geometry"/>
                </mxCell>
                <mxCell id="Hk_bj5TGi2icnV208QTR-16" value="表示" style="ellipse;shape=umlControl;whiteSpace=wrap;html=1;" parent="1" vertex="1">
                    <mxGeometry x="630" y="240" width="80" height="90" as="geometry"/>
                </mxCell>
                <mxCell id="Hk_bj5TGi2icnV208QTR-18" value="" style="endArrow=classic;html=1;" parent="1" source="Hk_bj5TGi2icnV208QTR-16" target="Hk_bj5TGi2icnV208QTR-15" edge="1">
                    <mxGeometry width="50" height="50" relative="1" as="geometry">
                        <mxPoint x="550" y="640" as="sourcePoint"/>
                        <mxPoint x="600" y="590" as="targetPoint"/>
                    </mxGeometry>
                </mxCell>
                <mxCell id="MNqsy0E5PyJ7OesBoapI-1" value="メッセージ&lt;br&gt;" style="ellipse;shape=umlEntity;whiteSpace=wrap;html=1;" parent="1" vertex="1">
                    <mxGeometry x="465" y="70" width="80" height="80" as="geometry"/>
                </mxCell>
                <mxCell id="MNqsy0E5PyJ7OesBoapI-2" value="チャットをクリック" style="text;html=1;align=center;verticalAlign=middle;resizable=0;points=[];autosize=1;strokeColor=none;fillColor=none;rotation=0;" parent="1" vertex="1">
                    <mxGeometry x="110" y="200" width="130" height="30" as="geometry"/>
                </mxCell>
                <mxCell id="MNqsy0E5PyJ7OesBoapI-12" value="追加" style="ellipse;shape=umlControl;whiteSpace=wrap;html=1;" parent="1" vertex="1">
                    <mxGeometry x="310" y="520" width="70" height="80" as="geometry"/>
                </mxCell>
                <mxCell id="MNqsy0E5PyJ7OesBoapI-14" value="メッセージを送信" style="text;html=1;align=center;verticalAlign=middle;resizable=0;points=[];autosize=1;strokeColor=none;fillColor=none;" parent="1" vertex="1">
                    <mxGeometry x="20" y="330" width="120" height="30" as="geometry"/>
                </mxCell>
                <mxCell id="MNqsy0E5PyJ7OesBoapI-16" value="メッセージ&lt;br&gt;" style="ellipse;shape=umlEntity;whiteSpace=wrap;html=1;" parent="1" vertex="1">
                    <mxGeometry x="480" y="545" width="80" height="80" as="geometry"/>
                </mxCell>
                <mxCell id="Hk_bj5TGi2icnV208QTR-19" value="システム&lt;br&gt;不良時▼" style="text;html=1;align=center;verticalAlign=middle;resizable=0;points=[];autosize=1;strokeColor=none;fillColor=none;" parent="1" vertex="1">
                    <mxGeometry x="550" y="220" width="70" height="40" as="geometry"/>
                </mxCell>
                <mxCell id="Hk_bj5TGi2icnV208QTR-14" value="正常終了時▼" style="text;html=1;align=center;verticalAlign=middle;resizable=0;points=[];autosize=1;strokeColor=none;fillColor=none;" parent="1" vertex="1">
                    <mxGeometry x="340" y="320" width="100" height="30" as="geometry"/>
                </mxCell>
                <mxCell id="kWsfNLcLpR5iNyVrBy_f-4" style="edgeStyle=none;html=1;" parent="1" source="kWsfNLcLpR5iNyVrBy_f-3" edge="1">
                    <mxGeometry relative="1" as="geometry">
                        <mxPoint x="420" y="240" as="targetPoint"/>
                    </mxGeometry>
                </mxCell>
                <mxCell id="kWsfNLcLpR5iNyVrBy_f-3" value="トップページ" style="shape=umlBoundary;whiteSpace=wrap;html=1;" parent="1" vertex="1">
                    <mxGeometry x="230" y="200" width="100" height="80" as="geometry"/>
                </mxCell>
                <mxCell id="jVDqJdejf1gqCJsP1JPh-1" value="" style="endArrow=classic;startArrow=classic;html=1;exitX=1.024;exitY=0.608;exitDx=0;exitDy=0;exitPerimeter=0;entryX=0.004;entryY=0.379;entryDx=0;entryDy=0;entryPerimeter=0;" edge="1" parent="1" source="MNqsy0E5PyJ7OesBoapI-12" target="MNqsy0E5PyJ7OesBoapI-16">
                    <mxGeometry width="50" height="50" relative="1" as="geometry">
                        <mxPoint x="440" y="530" as="sourcePoint"/>
                        <mxPoint x="490" y="480" as="targetPoint"/>
                    </mxGeometry>
                </mxCell>
                <mxCell id="jVDqJdejf1gqCJsP1JPh-2" value="" style="endArrow=classic;startArrow=classic;html=1;exitX=0.923;exitY=0.842;exitDx=0;exitDy=0;exitPerimeter=0;entryX=0.014;entryY=0.492;entryDx=0;entryDy=0;entryPerimeter=0;" edge="1" parent="1" source="Hk_bj5TGi2icnV208QTR-6" target="MNqsy0E5PyJ7OesBoapI-12">
                    <mxGeometry width="50" height="50" relative="1" as="geometry">
                        <mxPoint x="240" y="510" as="sourcePoint"/>
                        <mxPoint x="290" y="460" as="targetPoint"/>
                    </mxGeometry>
                </mxCell>
            </root>
        </mxGraphModel>
    </diagram>
    <diagram id="pKqey69ticLt-zX20g7n" name="パスワード変更">
        <mxGraphModel dx="770" dy="1048" grid="1" gridSize="10" guides="1" tooltips="1" connect="1" arrows="1" fold="1" page="1" pageScale="1" pageWidth="827" pageHeight="1169" math="0" shadow="0">
            <root>
                <mxCell id="0"/>
                <mxCell id="1" parent="0"/>
                <mxCell id="pU4nWT8JDVw23bAkBYVv-25" style="edgeStyle=none;html=1;fontSize=9;" parent="1" source="pU4nWT8JDVw23bAkBYVv-53" target="pU4nWT8JDVw23bAkBYVv-29" edge="1">
                    <mxGeometry relative="1" as="geometry">
                        <mxPoint x="850" y="218.96551724137942" as="sourcePoint"/>
                    </mxGeometry>
                </mxCell>
                <mxCell id="pU4nWT8JDVw23bAkBYVv-26" style="edgeStyle=none;html=1;fontSize=9;" parent="1" source="pU4nWT8JDVw23bAkBYVv-53" target="pU4nWT8JDVw23bAkBYVv-31" edge="1">
                    <mxGeometry relative="1" as="geometry">
                        <mxPoint x="850" y="244.83513895430997" as="sourcePoint"/>
                    </mxGeometry>
                </mxCell>
                <mxCell id="pU4nWT8JDVw23bAkBYVv-27" style="edgeStyle=none;html=1;fontSize=9;" parent="1" source="pU4nWT8JDVw23bAkBYVv-53" target="pU4nWT8JDVw23bAkBYVv-42" edge="1">
                    <mxGeometry relative="1" as="geometry">
                        <mxPoint x="850" y="275.43677088194124" as="sourcePoint"/>
                    </mxGeometry>
                </mxCell>
                <mxCell id="pU4nWT8JDVw23bAkBYVv-28" style="edgeStyle=none;html=1;fontSize=9;" parent="1" source="pU4nWT8JDVw23bAkBYVv-29" target="pU4nWT8JDVw23bAkBYVv-38" edge="1">
                    <mxGeometry relative="1" as="geometry"/>
                </mxCell>
                <mxCell id="pU4nWT8JDVw23bAkBYVv-29" value="&lt;font style=&quot;font-size: 12px;&quot;&gt;ログイン画面&lt;/font&gt;" style="shape=umlBoundary;whiteSpace=wrap;html=1;fontSize=9;" parent="1" vertex="1">
                    <mxGeometry x="1030" y="70" width="100" height="80" as="geometry"/>
                </mxCell>
                <mxCell id="pU4nWT8JDVw23bAkBYVv-30" style="edgeStyle=none;html=1;fontSize=9;" parent="1" source="pU4nWT8JDVw23bAkBYVv-31" target="pU4nWT8JDVw23bAkBYVv-35" edge="1">
                    <mxGeometry relative="1" as="geometry"/>
                </mxCell>
                <mxCell id="pU4nWT8JDVw23bAkBYVv-31" value="&lt;font style=&quot;font-size: 12px;&quot;&gt;パスワード&lt;br&gt;忘れ画面&lt;/font&gt;" style="shape=umlBoundary;whiteSpace=wrap;html=1;fontSize=9;" parent="1" vertex="1">
                    <mxGeometry x="1030" y="200" width="100" height="80" as="geometry"/>
                </mxCell>
                <mxCell id="pU4nWT8JDVw23bAkBYVv-32" value="&lt;font style=&quot;font-size: 12px;&quot;&gt;メールアドレスを入力し&lt;br&gt;送信ボタンをクリック▶&lt;br&gt;&lt;/font&gt;" style="text;html=1;align=center;verticalAlign=middle;resizable=0;points=[];autosize=1;strokeColor=none;fillColor=none;fontSize=9;" parent="1" vertex="1">
                    <mxGeometry x="865" y="200" width="160" height="40" as="geometry"/>
                </mxCell>
                <mxCell id="pU4nWT8JDVw23bAkBYVv-33" style="edgeStyle=none;html=1;fontSize=9;" parent="1" source="pU4nWT8JDVw23bAkBYVv-35" target="pU4nWT8JDVw23bAkBYVv-45" edge="1">
                    <mxGeometry relative="1" as="geometry"/>
                </mxCell>
                <mxCell id="pU4nWT8JDVw23bAkBYVv-34" style="edgeStyle=none;html=1;fontSize=12;" parent="1" source="pU4nWT8JDVw23bAkBYVv-35" target="pU4nWT8JDVw23bAkBYVv-54" edge="1">
                    <mxGeometry relative="1" as="geometry"/>
                </mxCell>
                <mxCell id="pU4nWT8JDVw23bAkBYVv-35" value="&lt;font style=&quot;font-size: 12px;&quot;&gt;メールアドレス認証&lt;/font&gt;" style="ellipse;shape=umlControl;whiteSpace=wrap;html=1;fontSize=9;" parent="1" vertex="1">
                    <mxGeometry x="1280" y="230" width="90" height="100" as="geometry"/>
                </mxCell>
                <mxCell id="pU4nWT8JDVw23bAkBYVv-36" value="&lt;font style=&quot;font-size: 12px;&quot;&gt;パスワード忘れた場合をクリック▶&lt;/font&gt;" style="text;html=1;align=center;verticalAlign=middle;resizable=0;points=[];autosize=1;strokeColor=none;fillColor=none;fontSize=9;" parent="1" vertex="1">
                    <mxGeometry x="800" y="105" width="220" height="30" as="geometry"/>
                </mxCell>
                <mxCell id="pU4nWT8JDVw23bAkBYVv-37" style="edgeStyle=none;html=1;fontSize=9;" parent="1" source="pU4nWT8JDVw23bAkBYVv-38" target="pU4nWT8JDVw23bAkBYVv-31" edge="1">
                    <mxGeometry relative="1" as="geometry"/>
                </mxCell>
                <mxCell id="pU4nWT8JDVw23bAkBYVv-38" value="&lt;font style=&quot;font-size: 12px;&quot;&gt;表示&lt;/font&gt;" style="ellipse;shape=umlControl;whiteSpace=wrap;html=1;fontSize=9;" parent="1" vertex="1">
                    <mxGeometry x="1190" y="130" width="70" height="80" as="geometry"/>
                </mxCell>
                <mxCell id="pU4nWT8JDVw23bAkBYVv-39" value="ユーザー" style="ellipse;shape=umlEntity;whiteSpace=wrap;html=1;" parent="1" vertex="1">
                    <mxGeometry x="1460" y="240" width="80" height="80" as="geometry"/>
                </mxCell>
                <mxCell id="pU4nWT8JDVw23bAkBYVv-40" value="" style="endArrow=classic;startArrow=classic;html=1;fontSize=9;" parent="1" source="pU4nWT8JDVw23bAkBYVv-35" target="pU4nWT8JDVw23bAkBYVv-39" edge="1">
                    <mxGeometry width="50" height="50" relative="1" as="geometry">
                        <mxPoint x="1350" y="300" as="sourcePoint"/>
                        <mxPoint x="1400" y="250" as="targetPoint"/>
                    </mxGeometry>
                </mxCell>
                <mxCell id="pU4nWT8JDVw23bAkBYVv-41" value="" style="edgeStyle=none;html=1;fontSize=14;startArrow=none;startFill=0;endArrow=classic;endFill=1;" parent="1" source="pU4nWT8JDVw23bAkBYVv-52" target="pU4nWT8JDVw23bAkBYVv-48" edge="1">
                    <mxGeometry relative="1" as="geometry"/>
                </mxCell>
                <mxCell id="pU4nWT8JDVw23bAkBYVv-42" value="&lt;font style=&quot;font-size: 12px;&quot;&gt;パスワード&lt;br&gt;変更画面&lt;/font&gt;" style="shape=umlBoundary;whiteSpace=wrap;html=1;fontSize=9;" parent="1" vertex="1">
                    <mxGeometry x="1030" y="350" width="100" height="80" as="geometry"/>
                </mxCell>
                <mxCell id="pU4nWT8JDVw23bAkBYVv-43" value="&lt;font style=&quot;font-size: 12px;&quot;&gt;新規パスワードを入力して▶&lt;br&gt;変更ボタンをクリック&lt;/font&gt;" style="text;html=1;align=center;verticalAlign=middle;resizable=0;points=[];autosize=1;strokeColor=none;fillColor=none;fontSize=9;" parent="1" vertex="1">
                    <mxGeometry x="845" y="340" width="180" height="40" as="geometry"/>
                </mxCell>
                <mxCell id="pU4nWT8JDVw23bAkBYVv-44" style="edgeStyle=none;html=1;fontSize=14;" parent="1" source="pU4nWT8JDVw23bAkBYVv-45" target="pU4nWT8JDVw23bAkBYVv-46" edge="1">
                    <mxGeometry relative="1" as="geometry"/>
                </mxCell>
                <mxCell id="pU4nWT8JDVw23bAkBYVv-45" value="&lt;font style=&quot;font-size: 12px;&quot;&gt;エラー表示&lt;/font&gt;" style="ellipse;shape=umlControl;whiteSpace=wrap;html=1;fontSize=9;" parent="1" vertex="1">
                    <mxGeometry x="1380" y="340" width="70" height="80" as="geometry"/>
                </mxCell>
                <mxCell id="pU4nWT8JDVw23bAkBYVv-46" value="無効なメールアドレスエラー" style="shape=umlBoundary;whiteSpace=wrap;html=1;fontSize=9;" parent="1" vertex="1">
                    <mxGeometry x="1530" y="340" width="100" height="80" as="geometry"/>
                </mxCell>
                <mxCell id="pU4nWT8JDVw23bAkBYVv-47" style="edgeStyle=none;html=1;fontSize=12;" parent="1" source="pU4nWT8JDVw23bAkBYVv-48" target="pU4nWT8JDVw23bAkBYVv-61" edge="1">
                    <mxGeometry relative="1" as="geometry"/>
                </mxCell>
                <mxCell id="pU4nWT8JDVw23bAkBYVv-48" value="&lt;span style=&quot;font-size: 12px;&quot;&gt;変更完了&lt;br&gt;ポップアップ&lt;br&gt;&lt;/span&gt;" style="shape=umlBoundary;whiteSpace=wrap;html=1;fontSize=9;" parent="1" vertex="1">
                    <mxGeometry x="1030" y="510" width="100" height="80" as="geometry"/>
                </mxCell>
                <mxCell id="pU4nWT8JDVw23bAkBYVv-49" value="ユーザー" style="ellipse;shape=umlEntity;whiteSpace=wrap;html=1;" parent="1" vertex="1">
                    <mxGeometry x="1340" y="450" width="80" height="80" as="geometry"/>
                </mxCell>
                <mxCell id="pU4nWT8JDVw23bAkBYVv-50" value="" style="endArrow=classic;startArrow=none;html=1;fontSize=9;startFill=0;" parent="1" source="pU4nWT8JDVw23bAkBYVv-42" target="pU4nWT8JDVw23bAkBYVv-52" edge="1">
                    <mxGeometry width="50" height="50" relative="1" as="geometry">
                        <mxPoint x="1170" y="405.3599999999999" as="sourcePoint"/>
                        <mxPoint x="1209.3" y="410" as="targetPoint"/>
                    </mxGeometry>
                </mxCell>
                <mxCell id="pU4nWT8JDVw23bAkBYVv-51" style="edgeStyle=none;html=1;fontSize=14;startArrow=none;startFill=0;endArrow=classic;endFill=1;" parent="1" source="pU4nWT8JDVw23bAkBYVv-52" target="pU4nWT8JDVw23bAkBYVv-49" edge="1">
                    <mxGeometry relative="1" as="geometry"/>
                </mxCell>
                <mxCell id="pU4nWT8JDVw23bAkBYVv-52" value="&lt;font style=&quot;font-size: 12px;&quot;&gt;パスワード更新&lt;/font&gt;" style="ellipse;shape=umlControl;whiteSpace=wrap;html=1;fontSize=14;" parent="1" vertex="1">
                    <mxGeometry x="1190" y="450" width="70" height="80" as="geometry"/>
                </mxCell>
                <mxCell id="pU4nWT8JDVw23bAkBYVv-53" value="ユーザー" style="shape=umlActor;verticalLabelPosition=bottom;verticalAlign=top;html=1;" parent="1" vertex="1">
                    <mxGeometry x="800" y="210" width="30" height="60" as="geometry"/>
                </mxCell>
                <mxCell id="pU4nWT8JDVw23bAkBYVv-54" value="&lt;font style=&quot;font-size: 12px;&quot;&gt;メール送信&lt;/font&gt;" style="ellipse;shape=umlControl;whiteSpace=wrap;html=1;fontSize=9;" parent="1" vertex="1">
                    <mxGeometry x="1160" y="310" width="70" height="80" as="geometry"/>
                </mxCell>
                <mxCell id="pU4nWT8JDVw23bAkBYVv-55" style="edgeStyle=none;html=1;fontSize=9;" parent="1" source="pU4nWT8JDVw23bAkBYVv-52" target="pU4nWT8JDVw23bAkBYVv-57" edge="1">
                    <mxGeometry relative="1" as="geometry">
                        <mxPoint x="1256.7263555210216" y="535.4588679352597" as="sourcePoint"/>
                    </mxGeometry>
                </mxCell>
                <mxCell id="pU4nWT8JDVw23bAkBYVv-56" style="edgeStyle=none;html=1;fontSize=14;" parent="1" source="pU4nWT8JDVw23bAkBYVv-57" target="pU4nWT8JDVw23bAkBYVv-58" edge="1">
                    <mxGeometry relative="1" as="geometry"/>
                </mxCell>
                <mxCell id="pU4nWT8JDVw23bAkBYVv-57" value="&lt;font style=&quot;font-size: 12px;&quot;&gt;エラー表示&lt;/font&gt;" style="ellipse;shape=umlControl;whiteSpace=wrap;html=1;fontSize=9;" parent="1" vertex="1">
                    <mxGeometry x="1380" y="570" width="70" height="80" as="geometry"/>
                </mxCell>
                <mxCell id="pU4nWT8JDVw23bAkBYVv-58" value="&lt;font style=&quot;font-size: 12px;&quot;&gt;&lt;br&gt;パスワードエラー&lt;br&gt;&lt;/font&gt;" style="shape=umlBoundary;whiteSpace=wrap;html=1;fontSize=9;" parent="1" vertex="1">
                    <mxGeometry x="1520" y="570" width="100" height="80" as="geometry"/>
                </mxCell>
                <mxCell id="pU4nWT8JDVw23bAkBYVv-59" value="" style="edgeStyle=none;html=1;fontSize=14;startArrow=none;startFill=0;endArrow=classic;endFill=1;" parent="1" source="pU4nWT8JDVw23bAkBYVv-61" target="pU4nWT8JDVw23bAkBYVv-60" edge="1">
                    <mxGeometry relative="1" as="geometry"/>
                </mxCell>
                <mxCell id="pU4nWT8JDVw23bAkBYVv-60" value="&lt;font style=&quot;font-size: 12px;&quot;&gt;ログイン画面&lt;/font&gt;" style="shape=umlBoundary;whiteSpace=wrap;html=1;fontSize=9;" parent="1" vertex="1">
                    <mxGeometry x="1030" y="630" width="100" height="80" as="geometry"/>
                </mxCell>
                <mxCell id="pU4nWT8JDVw23bAkBYVv-61" value="&lt;span style=&quot;font-size: 12px;&quot;&gt;表示&lt;/span&gt;" style="ellipse;shape=umlControl;whiteSpace=wrap;html=1;fontSize=14;" parent="1" vertex="1">
                    <mxGeometry x="1206" y="570" width="70" height="80" as="geometry"/>
                </mxCell>
                <mxCell id="pU4nWT8JDVw23bAkBYVv-62" value="無効な&lt;br&gt;メールアドレス▼" style="text;html=1;align=center;verticalAlign=middle;resizable=0;points=[];autosize=1;strokeColor=none;fillColor=none;fontSize=12;" parent="1" vertex="1">
                    <mxGeometry x="1265" y="330" width="120" height="40" as="geometry"/>
                </mxCell>
                <mxCell id="pU4nWT8JDVw23bAkBYVv-63" value="メールのURLから画面に遷移" style="text;html=1;align=center;verticalAlign=middle;resizable=0;points=[];autosize=1;strokeColor=none;fillColor=none;fontSize=12;" parent="1" vertex="1">
                    <mxGeometry x="780" y="310" width="180" height="30" as="geometry"/>
                </mxCell>
                <mxCell id="pU4nWT8JDVw23bAkBYVv-65" value="パスワードエラー▼" style="text;html=1;align=center;verticalAlign=middle;resizable=0;points=[];autosize=1;strokeColor=none;fillColor=none;" parent="1" vertex="1">
                    <mxGeometry x="1180" y="530" width="130" height="30" as="geometry"/>
                </mxCell>
            </root>
        </mxGraphModel>
    </diagram>
</mxfile>